<svg xmlns="http://www.w3.org/2000/svg" viewBox="0 0 2482.6 409.6"><g data-name="Layer 2"><g data-name="Layer 1"><path class="cls-1" d="M80 7v335h2403v68H0V7Z"/><path class="cls-1" d="M217 7v182c0 13 1 33 16 48 9 9 24 15 38 15s28-6 37-14c18-16 18-38 18-55V7h80v177c0 32-2 66-35 100-26 26-58 38-102 38-48 0-83-17-102-37-26-29-30-68-30-101V7Zm307 127L622 7h99L599 153l133 162H629L524 182v133h-80V7h80Zm388-59h-95v51h90v68h-90v53h95v68H737V7h175Zm193 47h115V7h81v308h-81V190h-115v125h-80V7h80Zm511 154c-32 30-76 46-122 46s-90-16-122-46a161 161 0 0 1 0-230c32-30 76-46 122-46s90 16 122 46a160 160 0 0 1 0 231Zm-184-174a84 84 0 0 0-25 61 78 78 0 0 0 25 57c14 14 35 25 62 25s48-10 62-24 25-36 25-60a83 83 0 0 0-25-59 92 92 0 0 0-62-24c-22 0-46 7-62 24Zm256 213V7h104c31 0 83 4 123 42 36 35 43 79 43 113 0 40-10 76-40 107-25 24-66 46-119 46Zm80-68h16c19 0 46-2 67-22 10-10 24-29 24-63 0-29-9-53-24-68-19-17-44-19-64-19h-19Zm214 68V7h105c31 0 83 4 123 42 36 35 43 79 43 113 0 40-11 76-41 107-24 24-65 46-118 46Zm80-68h16c20 0 47-2 68-22 10-10 23-29 23-63 0-29-8-53-24-68-19-17-44-19-63-19h-20Zm227-24c18 16 43 31 71 31 16 0 26-5 31-10a28 28 0 0 0 8-20 24 24 0 0 0-9-18c-8-7-20-11-40-17l-20-6c-13-4-32-11-45-25a78 78 0 0 1-17-54c0-38 15-61 28-75 16-16 42-29 79-29 30 0 66 10 95 25l-32 62a81 81 0 0 0-52-20c-8 0-19 1-27 9-4 4-8 10-8 16s1 10 5 14c2 3 7 9 26 14l25 8c19 6 40 13 56 30 15 17 20 34 20 55 0 28-7 56-30 78-26 26-58 31-91 31-19 0-37-2-60-10a216 216 0 0 1-47-24Z"/></g></g></svg>